<?xml version="1.0" encoding="utf-8"?>
<!-- Generator: Adobe Illustrator 24.1.1, SVG Export Plug-In . SVG Version: 6.00 Build 0)  -->
<svg version="1.1" id="Layer_1" xmlns="http://www.w3.org/2000/svg" xmlns:xlink="http://www.w3.org/1999/xlink" x="0px" y="0px"
	 viewBox="0 0 1000 1000" style="enable-background:new 0 0 1000 1000;" xml:space="preserve">
<style type="text/css">
	.st0{fill:url(#SVGID_1_);}
	.st1{fill:url(#SVGID_2_);}
	.st2{fill:url(#SVGID_3_);}
	.st3{fill:url(#SVGID_4_);}
	.st4{fill:url(#SVGID_5_);}
	.st5{fill:url(#SVGID_6_);}
	.st6{fill:url(#SVGID_7_);}
	.st7{fill:url(#SVGID_8_);}
	.st8{fill:#808080;}
	.st9{font-family:'Poppins-Medium';}
	.st10{font-size:23.8884px;}
</style>
<g>
	<g>
		<g>
			<linearGradient id="SVGID_1_" gradientUnits="userSpaceOnUse" x1="293.7843" y1="395.1445" x2="288.8559" y2="491.7412">
				<stop  offset="0" style="stop-color:#086598"/>
				<stop  offset="1" style="stop-color:#1F3E78"/>
			</linearGradient>
			<path class="st0" d="M323.8,430.4c0-0.5,0.2-0.9,0.6-1.1c0.6-0.2,1.2-0.5,1.8-0.5c13.8,0,27.6,0,41.4,0c0.7,0,1.4,0.2,2,0.3
				c0.4,0.1,0.7,0.4,0.8,0.8c-0.9,0.3-1.8,0.8-2.8,1.1c-2.1,0.7-4.3,1.1-6.2,2.1c-3.7,1.9-5.2,5.6-5.7,9.6c-0.3,2.6-0.6,5.3-0.6,8
				c0,18.7-0.1,37.4,0,56.2c0,3.3,0.3,6.6,0.9,9.9c1.3,6,5.7,9.6,11.8,10c0.5,0,0.9,0.2,1.3,0.5c0.4,0.2,0.2,0.8-0.2,0.8
				c-15,1.2-30,1.1-44.9,0.6c-0.2-0.4,0-0.8,0.3-1.1c0.5-0.4,1.1-0.8,1.7-0.8c7.8-1,12.3-5.5,12.6-13.4c0.3-10.7,0.2-21.5,0.2-32.3
				c0-0.5-0.2-1.1-0.3-1.7h-50.4c-0.5,3.7-0.9,7.4-1.7,11c-1.6,7.4-5.2,14-9.3,20.4c-0.7,1.1-0.8,1.8,0.2,2.8
				c3.3,3.4,6.6,6.6,10.8,8.9c5.6,3,9.7,1.9,13.1-3.4c0.7-1.1,1.6-2.2,2.3-3.3c0.2,1.5,0.2,2.9-0.2,4.2c-1.7,7.6-9.3,12.9-17.1,12
				c-6.8-0.8-12.7-3.5-17.9-8c-0.7-0.6-1.4-1.2-2.1-1.8c-3.6,1.8-7,3.8-10.6,5.3c-13.1,5.4-26.7,6.5-40.4,3.1
				c-3.5-0.9-6.8-3-10.1-4.6c-0.4-0.2-0.8-1.4-0.6-1.8c2.2-4.1,4.5-8.1,6.8-12.1c0.1-0.2,0.3-0.2,0.3-0.2c1.8,2.6,3.3,5.4,5.4,7.6
				c9.4,9.8,24,10.5,34.6,1.8c7.3-6,11.7-13.7,14.6-22.5c3.9-11.5,5.7-23.3,5-35.5c-0.4-6.3-0.2-12.7-0.5-19.1
				c-0.3-7.7-3.8-11.5-11.4-12.9c-1.2-0.2-2.3-0.5-3.5-0.7c-0.1-0.4,0.1-0.8,0.5-0.9c0.8-0.3,1.7-0.7,2.5-0.8
				c13.3-0.1,26.6,0,39.9,0c1.1,0,2.2,0.2,3.3,0.3c0.3,0,0.6,0.3,0.7,0.6c-0.5,0.3-0.8,0.7-1.3,0.9c-1.2,0.3-2.5,0.5-3.7,0.8
				c-5.6,1.4-9.4,5.5-9.7,11.3c-0.5,9.9-0.5,19.7-0.6,29.6c0,1.3,0.6,2.3,2.1,2.4c3.9,0.1,7.8,0.2,11.7,0.3c9.5,0,19,0.1,28.6,0
				c2.3,0,4.5-0.4,6.8-0.5c1.1-0.1,1.7-0.5,1.8-1.7c0-0.8,0.2-1.5,0.2-2.3c0-7.8,0-15.6-0.2-23.3c-0.1-2.6-0.4-5.2-1.1-7.7
				c-1.2-4.5-4.5-7-9-8.1C327.1,431.2,325.4,430.8,323.8,430.4C323.8,430.4,323.8,430.4,323.8,430.4z"/>
			<g>
				<g>
					<linearGradient id="SVGID_2_" gradientUnits="userSpaceOnUse" x1="210.8667" y1="390.914" x2="205.9383" y2="487.5107">
						<stop  offset="0" style="stop-color:#086598"/>
						<stop  offset="1" style="stop-color:#1F3E78"/>
					</linearGradient>
					<path class="st1" d="M204.5,457.9c0,0.4-0.3,0.8-0.8,0.8c-1.1,0-1.5-0.8-1.9-1.8c-1.4-3.8-2.6-7.6-4.1-11.3
						c-1.7-4.4-4.5-8.1-8.1-11c-5.5-4.5-14.2-5.2-20.1-1.7c-9,5.3-10.7,17.9-3.6,25.9c3.4,3.8,7.4,6.5,12.1,8.3
						c9.4,3.8,18.1,8.6,25.6,15.6c1.3,1.2,2.3,1.3,3.8,0.2c4.8-3.4,9.7-6.6,14.7-10c-2-2.9-3.9-5.6-5.8-8.3c-2.6-3.8-5-7.8-5.9-12.5
						c-1.8-9.5,3-18.1,12.5-21.8c9.8-3.8,19.7-3.4,29.1,1.5c8.1,4.2,11.2,13.1,7.4,20.8c-1.2,2.4-3.2,4.7-5.3,6.3
						c-4.3,3.2-9,5.9-13.5,8.7c-0.7,0.4-1.4,0.8-2.3,1.3c2.5,3,4.9,5.8,7.3,8.6c5.8,6.8,11.7,13.7,17.6,20.5c0.8,0.9,1,1.6,0.4,2.8
						c-2,3.6-3.9,7.3-6,11.3c-3.5-3.9-6.9-7.6-10.2-11.3c-6.9-7.7-13.9-15.4-20.8-23.2c-0.9-1-1.7-1.3-2.8-0.6
						c-1.5,0.9-3.2,1.6-4.4,2.9c-5.7,6-9.4,12.8-9.2,21.4c0.2,7.6-2,14.6-7,20.5c-6,7.3-14,10.2-23.2,10.7
						c-7.9,0.4-15.4-1.6-22.5-4.8c-0.5-0.2-0.9-0.3-1.4-0.6c-2.7-1.3-5-0.8-7,1.4c-0.2,0.2-0.5,0.5-0.9,0.6c-0.5,0.3-1.1,0-1.4-0.5
						c-0.2-0.4-0.3-0.8-0.3-1.3c0-8.8,0.2-17.6,0.3-26.4c0,0,0-0.1,0-0.2c0.2-0.7,1.1-1,1.7-0.5c0.2,0.2,0.4,0.3,0.5,0.5
						c1.4,3.6,2.5,7.3,4,10.9c3.7,8.7,9.2,15.6,19,17.4c9.3,1.8,18.9-3.4,21.4-12c2.8-9.6,1.4-19.3-8.1-25.6
						c-5.1-3.4-10.6-6.1-15.9-9.2c-3.8-2.3-7.8-4.3-11.2-7.1c-7.6-6.3-9.2-15.2-7.5-24.5c2.3-12.3,10-19.7,22.1-22.3
						c5.7-1.2,11.3-0.1,16.7,2c2.7,1,5.5,1.9,8.2,2.8c1.5,0.5,2.6,0.1,3.6-1.2c0.3-0.5,0.7-0.9,1.1-1.3c0.1-0.1,0.2-0.1,0.2-0.2
						c0.6-0.4,1.4-0.1,1.5,0.6c0,0,0,0.1,0,0.2C204.2,440.1,204.4,449,204.5,457.9z M248.6,445.9c0-2.9-0.7-5.9-2-8.4
						c-2.8-5.9-10.5-8.6-17.7-6.7c-6.1,1.6-9.5,6.6-8.7,12.9c0.2,1.6,0.8,3.2,1.6,4.7c3.5,6.7,8.5,12.3,13.6,17.8
						c0.3,0.3,1.3,0.3,1.7,0C244.5,461.5,248.6,454.8,248.6,445.9z"/>
				</g>
			</g>
		</g>
	</g>
	<g>
		<linearGradient id="SVGID_3_" gradientUnits="userSpaceOnUse" x1="439.9893" y1="427.264" x2="431.5188" y2="497.1464">
			<stop  offset="0" style="stop-color:#086598"/>
			<stop  offset="1" style="stop-color:#1F3E78"/>
		</linearGradient>
		<path class="st2" d="M478.1,429.9v1.4c-1.9,0.1-3.4,0.4-4.7,0.7c-1.2,0.3-2.2,1.1-3.1,2.3c-0.8,1.2-1.1,3-0.9,5.5l4,48.4
			c0.3,3.4,0.8,5.9,1.4,7.5c0.7,1.6,1.5,2.7,2.5,3.3c1,0.6,2.6,1.1,4.7,1.6v1.4h-33.1v-1.4c2.8-0.1,4.9-0.8,6.5-2.2
			c1.6-1.4,2.2-4.2,1.9-8.3l-3.5-45.9h-0.2l-23.5,57.8h-1.7L404.3,446h-0.2l-3.2,40.2c-0.3,3.9,0,7,0.8,9.1c0.9,2.1,2,3.5,3.5,4.1
			c1.5,0.6,3.1,1,5.1,1.1v1.4h-24.5v-1.4c3.1-0.2,5.4-1.4,7-3.7c1.6-2.3,2.6-6.1,3.2-11.4l4.8-45.6c-3-4.9-7.2-7.7-12.4-8.5v-1.4h26
			l20.8,47.4l19.3-47.4H478.1z"/>
		<linearGradient id="SVGID_4_" gradientUnits="userSpaceOnUse" x1="527.5994" y1="437.8834" x2="519.1288" y2="507.7657">
			<stop  offset="0" style="stop-color:#086598"/>
			<stop  offset="1" style="stop-color:#1F3E78"/>
		</linearGradient>
		<path class="st3" d="M486.6,465.7c0-4.9,0.8-9.6,2.5-14c1.7-4.5,4.1-8.4,7.4-11.8c3.3-3.4,7.2-6,11.9-7.9
			c4.6-1.9,9.9-2.8,15.8-2.8c5.9,0,11.2,1,15.9,2.9c4.6,1.9,8.6,4.6,11.8,7.9c3.2,3.4,5.7,7.3,7.4,11.8c1.7,4.5,2.5,9.2,2.5,14.2
			c0,5-0.8,9.7-2.4,14.1c-1.6,4.4-4,8.3-7.1,11.7c-3.1,3.4-7.1,6.1-11.8,8c-4.7,2-10.1,2.9-16.1,2.9c-6.5,0-12.1-1.1-16.9-3.3
			c-4.8-2.2-8.7-5.1-11.8-8.7c-3-3.6-5.3-7.6-6.8-12C487.4,474.3,486.6,470,486.6,465.7z M503.8,464.8c0,4.9,0.4,9.7,1.1,14.5
			c0.7,4.7,2.6,9.2,5.7,13.3c3.1,4.1,7.7,6.2,13.8,6.2c8.6,0,14.2-3.5,16.6-10.4c2.4-7,3.6-14.1,3.6-21.3c0-5.6-0.5-10.9-1.5-15.8
			c-1-4.9-3-9.1-6-12.6c-3-3.5-7.3-5.3-12.8-5.3c-6.2,0-10.8,2-13.9,6c-3,4-4.9,8.2-5.7,12.7C504.1,456.4,503.8,460.7,503.8,464.8z"
			/>
		<linearGradient id="SVGID_5_" gradientUnits="userSpaceOnUse" x1="597.7336" y1="446.3845" x2="589.263" y2="516.2668">
			<stop  offset="0" style="stop-color:#086598"/>
			<stop  offset="1" style="stop-color:#1F3E78"/>
		</linearGradient>
		<path class="st4" d="M573.5,429.9h50.3c2.3,0,4.2-0.3,5.8-0.9h1.4l0.4,16.9H630c-0.7-5-1.9-8.1-3.6-9.5c-1.7-1.4-3.8-2-6.3-2
			h-13.5v56.8c0,1.9,0.2,3.5,0.6,4.8c0.4,1.3,1.3,2.4,2.6,3.2c1.3,0.8,3.2,1.2,5.7,1.2v1.4h-33.9v-1.4c3.7,0,6.2-0.8,7.3-2.5
			c1.1-1.7,1.7-3.9,1.7-6.7v-56.8h-13.5c-2.3,0-4.1,0.7-5.6,2.2c-1.4,1.5-2.8,4.6-4.2,9.3h-1.5l0.4-16.9h1.4
			C569.2,429.6,571.1,429.9,573.5,429.9z"/>
		<linearGradient id="SVGID_6_" gradientUnits="userSpaceOnUse" x1="673.6057" y1="455.5811" x2="665.135" y2="525.4635">
			<stop  offset="0" style="stop-color:#086598"/>
			<stop  offset="1" style="stop-color:#1F3E78"/>
		</linearGradient>
		<path class="st5" d="M634.8,465.7c0-4.9,0.8-9.6,2.5-14c1.7-4.5,4.1-8.4,7.4-11.8c3.3-3.4,7.2-6,11.9-7.9
			c4.6-1.9,9.9-2.8,15.8-2.8c5.9,0,11.2,1,15.9,2.9c4.6,1.9,8.6,4.6,11.8,7.9c3.2,3.4,5.7,7.3,7.4,11.8c1.7,4.5,2.5,9.2,2.5,14.2
			c0,5-0.8,9.7-2.4,14.1s-4,8.3-7.1,11.7c-3.1,3.4-7.1,6.1-11.8,8c-4.7,2-10.1,2.9-16.1,2.9c-6.5,0-12.1-1.1-16.9-3.3
			c-4.8-2.2-8.7-5.1-11.8-8.7c-3-3.6-5.3-7.6-6.8-12C635.5,474.3,634.8,470,634.8,465.7z M651.9,464.8c0,4.9,0.4,9.7,1.1,14.5
			s2.6,9.2,5.7,13.3c3.1,4.1,7.7,6.2,13.8,6.2c8.6,0,14.2-3.5,16.6-10.4c2.4-7,3.6-14.1,3.6-21.3c0-5.6-0.5-10.9-1.5-15.8
			c-1-4.9-3-9.1-6-12.6c-3-3.5-7.3-5.3-12.8-5.3c-6.2,0-10.8,2-13.9,6c-3,4-4.9,8.2-5.7,12.7C652.3,456.4,651.9,460.7,651.9,464.8z"
			/>
		<linearGradient id="SVGID_7_" gradientUnits="userSpaceOnUse" x1="753.5726" y1="465.2741" x2="745.1021" y2="535.1564">
			<stop  offset="0" style="stop-color:#086598"/>
			<stop  offset="1" style="stop-color:#1F3E78"/>
		</linearGradient>
		<path class="st6" d="M742.4,468.2h-2.3v23c0,2.7,0.4,4.8,1.2,6.1c0.8,1.4,1.8,2.2,3,2.6c1.2,0.4,2.7,0.6,4.7,0.7v1.3h-33.8v-1.4
			c3.8,0,6.2-0.8,7.3-2.5c1.1-1.7,1.6-3.9,1.6-6.7v-50.5c0-3.5-0.7-5.9-2.1-7.3c-1.4-1.4-3.7-2.1-6.8-2.1v-1.4h37.4
			c4.9,0,9.2,0.8,13,2.3c3.7,1.5,6.6,3.7,8.5,6.5c2,2.8,2.9,6,2.9,9.6c0,2.9-0.6,5.5-1.9,7.8c-1.2,2.3-2.9,4.2-5,5.6
			c-2.1,1.5-4.4,2.6-7,3.4c3.4,2.1,6.6,5.9,9.8,11.2l8.6,14.6c1.5,2.5,2.8,4.5,4.1,5.8c1.2,1.4,2.3,2.3,3.3,2.7
			c0.9,0.4,2,0.7,3.1,0.9v1.4h-23.2c-2.3-4.1-4-7.3-5.2-9.7c-3.8-7.5-6.7-12.8-8.4-15.7c-1.8-2.9-3.6-5.1-5.5-6.4
			C747.7,468.8,745.3,468.2,742.4,468.2z M744,433.9h-3.9v30.3h3.3c5.6,0,9.8-1.3,12.7-4s4.3-6.6,4.3-11.6c0-3.1-0.6-5.8-1.8-7.9
			c-1.2-2.2-3-3.8-5.5-5C750.6,434.5,747.6,433.9,744,433.9z"/>
		<linearGradient id="SVGID_8_" gradientUnits="userSpaceOnUse" x1="818.4019" y1="473.1322" x2="809.9313" y2="543.0145">
			<stop  offset="0" style="stop-color:#086598"/>
			<stop  offset="1" style="stop-color:#1F3E78"/>
		</linearGradient>
		<path class="st7" d="M836.7,447.7h-1.9c-1.3-4.5-3.4-8-6.2-10.6c-2.8-2.6-6.3-3.9-10.3-3.9c-2,0-3.8,0.4-5.5,1.2
			c-1.6,0.8-3,1.9-3.9,3.4c-1,1.5-1.4,3.2-1.4,5.1c0,1.1,0.2,2.2,0.6,3.3c0.4,1.1,1.3,2.4,2.7,4c1.4,1.6,3.6,3.3,6.6,5.2
			c3.3,2.1,5.3,3.4,6,3.9c4.1,2.6,7.5,5,10.1,7.2c2.6,2.2,4.6,4.6,6,7.2c1.4,2.6,2.1,5.5,2.1,8.8c0,3-0.6,5.7-1.7,8.2
			c-1.2,2.5-2.8,4.6-4.9,6.4c-2.1,1.8-4.7,3.2-7.6,4.2c-3,1-6.2,1.5-9.6,1.5c-3.6,0-7.7-0.7-12.3-2c-0.5-0.1-1.2-0.3-2-0.4
			c-0.8-0.2-1.5-0.2-2.1-0.2c-1.5,0-2.6,0.8-3.3,2.4H796l0.4-20.3h1.9c0.6,3.8,1.9,7.1,4,9.6c2,2.6,4.3,4.4,6.9,5.6
			c2.6,1.2,5.1,1.7,7.6,1.7c3.6,0,6.6-1,9-3c2.4-2,3.5-4.5,3.5-7.4c0-2-0.5-3.7-1.5-5.1c-1-1.5-2.5-2.9-4.5-4.3
			c-2-1.4-5.7-3.9-11.2-7.4c-2.9-1.9-5.4-3.7-7.4-5.5c-2-1.8-3.6-3.4-4.8-5.1c-1.1-1.6-1.9-3.2-2.4-4.8c-0.5-1.6-0.7-3.3-0.7-5.2
			c0-3.5,0.9-7,2.7-10.4c1.8-3.4,4.4-6.2,7.7-8.4c3.3-2.2,7.1-3.3,11.4-3.3c2,0,3.9,0.2,5.7,0.6c0.5,0.1,1.1,0.2,2,0.4
			c0.8,0.2,1.5,0.4,2.1,0.5c1.4,0.3,2.5,0.4,3.2,0.4c1.1,0,1.9-0.2,2.3-0.5c0.4-0.4,0.9-0.9,1.2-1.6h1.5V447.7z"/>
	</g>
	<text transform="matrix(1 0 0 1 382.8583 530.6424)" class="st8 st9 st10">Japanese New &amp; Used Cars Exporter</text>
</g>
</svg>
